<?xml version="1.0" standalone="no"?>
<!DOCTYPE svg PUBLIC "-//W3C//DTD SVG 20010904//EN"
 "http://www.w3.org/TR/2001/REC-SVG-20010904/DTD/svg10.dtd">
<svg version="1.0" xmlns="http://www.w3.org/2000/svg"
 width="16.000000pt" height="16.000000pt" viewBox="0 0 16.000000 16.000000"
 preserveAspectRatio="xMidYMid meet">
<metadata>
Created by potrace 1.11, written by Peter Selinger 2001-2013
</metadata>
<g transform="translate(0.000000,16.000000) scale(0.003200,-0.003200)"
fill="#000000" stroke="none">
<path d="M2742 4830 c-255 -40 -709 -171 -802 -231 -25 -17 -51 -27 -60 -23
-8 3 -43 11 -77 16 -115 20 -259 -20 -385 -105 -49 -33 -75 -75 -64 -102 3
-10 -14 -45 -45 -90 -35 -51 -50 -81 -46 -95 3 -13 -1 -25 -12 -33 -10 -6 -28
-31 -39 -53 -12 -23 -44 -70 -72 -105 -34 -42 -50 -71 -47 -85 2 -11 -2 -26
-10 -32 -18 -18 -16 -59 3 -70 14 -8 12 -14 -16 -46 -29 -33 -32 -40 -26 -80
8 -53 26 -70 66 -64 30 5 31 4 56 -76 39 -125 65 -295 70 -471 l5 -160 -46
-29 c-50 -31 -99 -97 -115 -156 -14 -51 -12 -166 5 -239 37 -154 96 -261 211
-378 l70 -73 18 -137 c10 -76 22 -172 27 -213 6 -50 16 -81 29 -95 18 -19 19
-28 10 -138 -22 -262 -78 -431 -184 -545 -51 -56 -206 -172 -319 -241 -104
-62 -393 -203 -527 -256 -52 -21 -167 -64 -255 -95 l-160 -56 -3 -137 -3 -137
2383 1 2383 0 -98 50 c-237 121 -662 286 -1184 462 -171 58 -325 113 -342 121
-44 23 -61 63 -61 144 0 65 2 71 28 87 48 32 182 167 247 250 113 145 197 298
304 558 l66 159 55 21 c130 47 235 154 278 280 29 87 34 125 22 187 -16 83
-40 121 -96 151 l-49 25 29 122 c26 108 31 122 50 122 12 0 37 10 56 21 47 29
169 155 200 207 14 23 32 42 41 42 22 0 41 24 38 47 -1 10 1 25 5 35 7 14 10
14 34 2 35 -18 39 -18 52 6 8 15 7 28 -6 52 -11 21 -20 72 -25 140 -5 70 -17
133 -34 183 -14 41 -25 94 -25 116 0 22 -4 49 -10 59 -15 28 -3 48 25 42 47
-9 40 38 -24 146 l-29 50 28 -11 c68 -26 83 29 18 69 -74 46 -98 76 -163 204
-72 141 -123 218 -209 315 -115 130 -272 226 -412 250 -41 7 -83 20 -92 28
-26 23 -90 53 -167 77 -101 33 -396 38 -573 10z m-469 -1485 c48 -13 119 -30
159 -37 40 -6 92 -20 116 -30 50 -20 93 -23 109 -7 8 8 56 10 155 7 120 -5
161 -10 256 -37 62 -17 128 -38 147 -45 18 -8 36 -12 38 -10 6 6 107 -45 125
-63 8 -7 26 -12 40 -12 28 2 74 -19 175 -79 53 -31 120 -104 153 -167 6 -13
19 -19 35 -18 42 3 89 -17 89 -37 0 -10 9 -25 20 -33 19 -13 18 -16 -16 -158
-61 -253 -174 -614 -259 -829 -322 -814 -825 -1183 -1290 -947 -86 43 -174
116 -341 282 -152 152 -164 165 -213 263 -59 116 -118 291 -181 532 -23 91
-49 175 -56 188 -15 23 -58 30 -69 12 -10 -17 -62 19 -126 88 -99 106 -172
283 -173 422 -1 58 4 83 20 110 42 71 126 100 193 66 36 -19 90 -80 107 -122
7 -18 19 -34 25 -36 15 -5 24 -254 9 -263 -50 -31 82 -176 148 -163 20 4 21
15 47 498 9 173 21 316 25 318 35 13 100 80 120 122 21 44 33 55 90 85 36 19
94 55 130 79 36 25 75 45 86 45 12 1 60 -10 107 -24z m1668 -955 c36 -20 51
-66 46 -144 -6 -91 -34 -150 -101 -214 -51 -48 -116 -90 -116 -75 0 4 14 50
31 101 28 85 34 95 65 108 18 8 47 14 63 14 24 0 32 5 37 25 11 42 -1 55 -51
55 -25 0 -45 4 -45 8 0 5 7 31 16 58 9 27 17 55 20 62 4 15 10 15 35 2z
m-2342 -802 c68 -235 162 -384 364 -574 231 -218 426 -321 632 -331 117 -6
224 16 327 68 67 34 78 30 78 -26 0 -55 21 -105 58 -143 33 -33 52 -42 160
-71 67 -19 122 -37 122 -42 0 -14 -204 -108 -311 -143 -587 -193 -1226 -80
-1825 325 l-75 50 58 43 c117 87 211 206 264 337 45 110 68 225 80 409 16 256
20 261 68 98z"/>
<path d="M2015 3078 c-62 -33 -144 -98 -151 -121 -10 -31 13 -42 123 -60 54
-8 254 -41 446 -73 332 -54 348 -56 367 -39 26 24 36 73 18 91 -8 8 -61 31
-119 50 -153 52 -589 174 -618 174 -14 -1 -44 -10 -66 -22z"/>
<path d="M3241 2820 c-54 -13 -78 -68 -44 -101 16 -17 65 -26 284 -56 330 -45
323 -45 327 -14 5 34 -24 103 -56 134 -26 25 -38 28 -153 37 -146 11 -310 11
-358 0z"/>
<path d="M2020 2755 c-102 -30 -135 -51 -135 -91 0 -26 4 -29 36 -32 20 -2 59
6 88 17 28 12 55 21 59 21 4 0 6 -20 4 -45 -8 -97 88 -175 213 -175 108 1 183
53 192 134 3 25 10 46 16 46 12 0 92 -45 126 -72 31 -24 68 -23 81 2 9 17 7
26 -10 47 -39 49 -118 100 -207 133 -82 31 -98 33 -233 36 -129 2 -155 0 -230
-21z"/>
<path d="M1264 2629 c-62 -18 -52 -94 10 -87 31 3 31 3 32 -47 2 -62 37 -148
68 -165 59 -31 83 14 42 75 -15 21 -26 43 -26 49 0 6 -3 22 -7 35 -6 22 -4 23
26 16 36 -8 61 7 61 35 0 25 -62 77 -107 89 -44 13 -57 13 -99 0z"/>
<path d="M3264 2580 c-71 -14 -113 -37 -120 -64 -9 -38 3 -49 47 -43 39 5 39
5 39 -30 0 -80 67 -135 170 -141 53 -3 75 0 108 17 44 22 72 63 72 106 0 14 3
25 6 25 3 0 32 -16 64 -36 66 -41 94 -41 98 -3 2 21 -6 35 -40 63 -104 90
-296 135 -444 106z"/>
<path d="M2116 2330 c-96 -25 -152 -83 -128 -134 15 -33 68 -71 127 -91 69
-24 205 -25 272 -1 55 18 103 63 103 96 0 34 -58 88 -118 110 -64 24 -197 34
-256 20z"/>
<path d="M3255 2175 c-44 -16 -85 -56 -85 -84 0 -10 9 -30 20 -43 56 -73 255
-99 355 -47 90 46 83 107 -21 159 -61 31 -204 39 -269 15z"/>
<path d="M3002 1938 c-7 -7 -12 -35 -12 -62 0 -68 -25 -116 -74 -141 -50 -26
-64 -48 -46 -70 36 -43 154 10 192 86 46 89 -4 243 -60 187z"/>
<path d="M2333 1560 c-63 -49 -72 -69 -43 -92 24 -19 34 -21 65 -9 14 6 29 1
50 -14 153 -115 454 -157 678 -94 47 13 69 51 44 76 -15 15 -22 15 -96 -1
-173 -38 -366 -15 -518 59 -68 34 -72 37 -75 73 -4 54 -39 55 -105 2z"/>
</g>
</svg>
